<svg xmlns="http://www.w3.org/2000/svg" width="20" height="15.013" viewBox="0 0 20 15.013">
  <g id="persons" transform="translate(0 0)">
    <path id="Path_9" data-name="Path 9" d="M0,14.63v.376c3.1.041.648-.016,2.937-2.835a5.918,5.918,0,0,1,3.721-2.1,5.789,5.789,0,0,1,4.547,1.263c1.859,1.422,1.9,3.183,2.215,3.673h1.534c.12-1.146-.949-2.98-1.491-3.676C12,9.453,10.988,9.477,10.546,8.946a5.033,5.033,0,0,0,1.632-5.709,4.97,4.97,0,0,0-7.853-2.05l-.3.26-.047.043-.314.323A5.017,5.017,0,0,0,4.5,9a7.807,7.807,0,0,0-2.882,2.216C.248,12.941.464,13.746,0,14.63ZM6.959,1.721C2.607,2.481,3.717,9,8.06,8.294a3.3,3.3,0,0,0,2.724-3.848A3.337,3.337,0,0,0,6.959,1.721Z" transform="translate(0 0)" fill="#93a4ab" fill-rule="evenodd"/>
    <path id="Path_10" data-name="Path 10" d="M20,13.254v-.517a6.167,6.167,0,0,0-.922-2.306,4.11,4.11,0,0,0-1.8-1.565c1.054-1.808,1.6-3.367.365-5.548a5.032,5.032,0,0,0-4.8-2.49L13.75,2.49c.1.071.7.216.943.331a3.238,3.238,0,0,1,.848.537,3.312,3.312,0,0,1,.282,4.7c-.217.284-1.264.8-.652,1.638.4.547,3.027.507,3.168,3.552l1.662,0Z" transform="translate(0 0)" fill="#93a4ab" fill-rule="evenodd"/>
  </g>
</svg>
